<svg id="visual" viewBox="0 0 960 200" width="960" height="200" xmlns="http://www.w3.org/2000/svg" xmlns:xlink="http://www.w3.org/1999/xlink" version="1.1"><rect x="0" y="0" width="960" height="200" fill="#128d29"></rect><path d="M0 160L32 154.2C64 148.3 128 136.7 192 131.7C256 126.7 320 128.3 384 131.2C448 134 512 138 576 139.7C640 141.3 704 140.7 768 138.3C832 136 896 132 928 130L960 128L960 0L928 0C896 0 832 0 768 0C704 0 640 0 576 0C512 0 448 0 384 0C320 0 256 0 192 0C128 0 64 0 32 0L0 0Z" fill="#2f922f"></path><path d="M0 97L32 98.2C64 99.3 128 101.7 192 106.8C256 112 320 120 384 116.3C448 112.7 512 97.3 576 95.2C640 93 704 104 768 104.7C832 105.3 896 95.7 928 90.8L960 86L960 0L928 0C896 0 832 0 768 0C704 0 640 0 576 0C512 0 448 0 384 0C320 0 256 0 192 0C128 0 64 0 32 0L0 0Z" fill="#36a13d"></path><path d="M0 58L32 62.5C64 67 128 76 192 78.3C256 80.7 320 76.3 384 77.3C448 78.3 512 84.7 576 84.3C640 84 704 77 768 72.7C832 68.3 896 66.7 928 65.8L960 65L960 0L928 0C896 0 832 0 768 0C704 0 640 0 576 0C512 0 448 0 384 0C320 0 256 0 192 0C128 0 64 0 32 0L0 0Z" fill="#3daf4b"></path><path d="M0 56L32 56C64 56 128 56 192 51.5C256 47 320 38 384 37.3C448 36.7 512 44.3 576 43.5C640 42.7 704 33.3 768 29.3C832 25.3 896 26.7 928 27.3L960 28L960 0L928 0C896 0 832 0 768 0C704 0 640 0 576 0C512 0 448 0 384 0C320 0 256 0 192 0C128 0 64 0 32 0L0 0Z" fill="#44be5a"></path></svg>