<svg id="visual" viewBox="0 0 960 540" width="960" height="540" xmlns="http://www.w3.org/2000/svg" xmlns:xlink="http://www.w3.org/1999/xlink" version="1.1"><rect x="0" y="0" width="960" height="540" fill="#44be5a"></rect><path d="M0 196L32 189C64 182 128 168 192 171C256 174 320 194 384 196.3C448 198.7 512 183.3 576 178.8C640 174.3 704 180.7 768 179.3C832 178 896 169 928 164.5L960 160L960 0L928 0C896 0 832 0 768 0C704 0 640 0 576 0C512 0 448 0 384 0C320 0 256 0 192 0C128 0 64 0 32 0L0 0Z" fill="#54cc54"></path><path d="M0 121L32 122.2C64 123.3 128 125.7 192 129.5C256 133.3 320 138.7 384 141.5C448 144.3 512 144.7 576 149.2C640 153.7 704 162.3 768 166.8C832 171.3 896 171.7 928 171.8L960 172L960 0L928 0C896 0 832 0 768 0C704 0 640 0 576 0C512 0 448 0 384 0C320 0 256 0 192 0C128 0 64 0 32 0L0 0Z" fill="#79dd77"></path><path d="M0 119L32 118.3C64 117.7 128 116.3 192 112.7C256 109 320 103 384 95.7C448 88.3 512 79.7 576 82.2C640 84.7 704 98.3 768 107.2C832 116 896 120 928 122L960 124L960 0L928 0C896 0 832 0 768 0C704 0 640 0 576 0C512 0 448 0 384 0C320 0 256 0 192 0C128 0 64 0 32 0L0 0Z" fill="#9aee99"></path><path d="M0 28L32 29.7C64 31.3 128 34.7 192 40.5C256 46.3 320 54.7 384 56.5C448 58.3 512 53.7 576 50.7C640 47.7 704 46.3 768 44.3C832 42.3 896 39.7 928 38.3L960 37L960 0L928 0C896 0 832 0 768 0C704 0 640 0 576 0C512 0 448 0 384 0C320 0 256 0 192 0C128 0 64 0 32 0L0 0Z" fill="#bbffbb"></path></svg>