<?xml version="1.0" encoding="UTF-8" standalone="no"?>
<svg
   id="visual"
   viewBox="0 0 960 30.594146"
   width="960"
   height="30.594147"
   version="1.1"
   sodipodi:docname="layered-waves-top-2.svg"
   inkscape:version="1.2.1 (9c6d41e, 2022-07-14)"
   xmlns:inkscape="http://www.inkscape.org/namespaces/inkscape"
   xmlns:sodipodi="http://sodipodi.sourceforge.net/DTD/sodipodi-0.dtd"
   xmlns="http://www.w3.org/2000/svg"
   xmlns:svg="http://www.w3.org/2000/svg">
  <defs
     id="defs72" />
  <sodipodi:namedview
     id="namedview70"
     pagecolor="#ffffff"
     bordercolor="#000000"
     borderopacity="0.25"
     inkscape:showpageshadow="2"
     inkscape:pageopacity="0.0"
     inkscape:pagecheckerboard="0"
     inkscape:deskcolor="#d1d1d1"
     showgrid="false"
     inkscape:zoom="1.18"
     inkscape:cx="354.66102"
     inkscape:cy="-30.508475"
     inkscape:window-width="1414"
     inkscape:window-height="730"
     inkscape:window-x="0"
     inkscape:window-y="62"
     inkscape:window-maximized="0"
     inkscape:current-layer="visual" />
  <path
     d="m 0,-101.40585 32,5.799997 c 32,5.9 96,17.5 160,22.5 64,5 128,3.4 192,0.5 64,-2.8 128,-6.8 192,-8.5 64,-1.6 128,-1 192,1.4 64,2.3 128,6.3 160,8.3 l 32,2 v 100 H 928 768 576 384 192 32 0 Z"
     fill="#8eb28e"
     id="path61"
     style="opacity:0.8"
     sodipodi:nodetypes="ccscccscccccccccc" />
  <path
     d="m 0,-38.405853 32,-1.2 c 32,-1.1 96,-3.5 160,-8.6 64,-5.2 128,-13.2 192,-9.5 64,3.6 128,19 192,21.1 64,2.2 128,-8.8 192,-9.5 64,-0.6 128,9 160,13.9 l 32,4.8 v 58 H 928 768 576 384 192 32 0 Z"
     fill="#9dcb9d"
     id="path63"
     style="opacity:0.8"
     sodipodi:nodetypes="ccccccccccccccccc" />
  <path
     d="M 0,0.59414673 32,-3.9058533 c 32,-4.5 96,-13.4999997 160,-15.7999997 64,-2.4 128,2 192,1 64,-1 128,-7.4 192,-7 64,0.3 128,7.3 192,11.6 64,4.3999997 128,5.9999997 160,6.8999997 l 32,0.8 V 30.594147 H 928 768 576 384 192 32 0 Z"
     fill="#ace5ac"
     id="path65"
     style="opacity:1"
     sodipodi:nodetypes="cscsccccccccccccc" />
  <path
     d="m 0,2.5941467 h 32 c 32,0 96,0 160,4.5 64,4.5000003 128,13.5000003 192,14.2000003 64,0.6 128,-7 192,-6.2 64,0.8 128,10.2 192,14.2 64,4 128,2.6 160,2 l 32,-0.7 v 0 H 928 768 576 384 192 32 0 Z"
     fill="#bbffbb"
     id="path67"
     sodipodi:nodetypes="csscssccccccccccc" />
</svg>
